<?xml version="1.0" standalone="no"?>
<!DOCTYPE svg PUBLIC "-//W3C//DTD SVG 1.0//EN" "http://www.w3.org/TR/2001/REC-SVG-20010904/DTD/svg10.dtd">
<svg xmlns="http://www.w3.org/2000/svg" xmlns:xlink="http://www.w3.org/1999/xlink" id="body_1" width="438" height="416">

<g transform="matrix(0.71972317 0 0 0.71972317 0.20415732 -0)">
	<g>
        <path d="M205.504 43.2302C 207.272 42.1588 209.174 41.3314 211.158 40.7702L211.158 40.7702L212.314 35.1245L221.75 34.9523L223.112 40.5611C 225.112 41.06 227.038 41.8252 228.839 42.8366L228.839 42.8366L233.606 39.6755L240.403 46.3175L237.448 51.2375C 238.508 53.0211 239.326 54.9407 239.88 56.9447L239.88 56.9447L245.462 58.1132L245.632 67.658L240.087 69.0233C 239.596 71.0472 238.839 72.9956 237.837 74.8166L237.837 74.8166L240.963 79.6505L234.396 86.5139L229.532 83.525C 227.769 84.597 225.871 85.4244 223.89 85.985L223.89 85.985L222.674 91.6307L213.238 91.8029L211.876 86.1941C 209.88 85.6951 207.958 84.9299 206.161 83.9186L206.161 83.9186L201.382 87.0797L194.56 80.45L197.515 75.53C 196.456 73.7417 195.638 71.8182 195.083 69.8105L195.083 69.8105L189.501 68.5805L189.331 59.0357L194.876 57.6581C 195.369 55.6348 196.126 53.6867 197.126 51.8648L197.126 51.8648L194.001 47.0309L200.64 40.2413L205.504 43.2302zM210.538 55.9484C 209.146 57.4055 208.212 59.2474 207.855 61.2413C 207.498 63.2352 207.733 65.2914 208.531 67.1501C 209.329 69.0087 210.654 70.5862 212.339 71.6832C 214.023 72.7802 215.991 73.3473 217.994 73.3129C 219.997 73.2785 221.945 72.6441 223.592 71.4899C 225.238 70.3358 226.509 68.7137 227.245 66.8287C 227.98 64.9437 228.146 62.8806 227.722 60.9001C 227.298 58.9197 226.303 57.1109 224.863 55.7024C 223.905 54.7611 222.772 54.0205 221.53 53.5232C 220.288 53.0259 218.961 52.7817 217.626 52.8045C 216.29 52.8274 214.972 53.1169 213.748 53.6564C 212.523 54.1959 211.416 54.9748 210.49 55.9484L210.49 55.9484L210.538 55.9484z" stroke="none" fill="#E0E0E0" fill-rule="nonzero" />
        <path d="M207.693 360.004C 208.711 359.383 209.807 358.904 210.952 358.578L210.952 358.578L211.62 355.318L217.068 355.22L217.846 358.455C 219.002 358.737 220.114 359.176 221.154 359.758L221.154 359.758L223.902 357.938L227.818 361.763L226.176 364.58C 226.79 365.61 227.264 366.719 227.587 367.876L227.587 367.876L230.809 368.553L230.906 374.063L227.708 374.851C 227.429 376.019 226.995 377.144 226.419 378.196L226.419 378.196L228.219 380.976L224.437 384.936L221.628 383.214C 220.608 383.834 219.512 384.318 218.369 384.654L218.369 384.654L217.664 387.95L212.216 388.048L211.438 384.814C 210.283 384.531 209.17 384.092 208.131 383.51L208.131 383.51L205.382 385.33L201.467 381.505L203.169 378.664C 202.557 377.631 202.078 376.523 201.747 375.367L201.747 375.367L198.536 374.691L198.439 369.18L201.637 368.393C 201.916 367.224 202.35 366.099 202.926 365.047L202.926 365.047L201.126 362.268L204.908 358.307L207.717 360.029L207.693 360.004zM210.599 367.384C 209.794 368.226 209.253 369.29 209.046 370.442C 208.839 371.594 208.974 372.782 209.435 373.856C 209.896 374.93 210.662 375.842 211.635 376.476C 212.609 377.109 213.746 377.436 214.904 377.416C 216.061 377.395 217.187 377.027 218.137 376.359C 219.088 375.691 219.822 374.753 220.245 373.663C 220.668 372.573 220.762 371.381 220.515 370.237C 220.267 369.093 219.69 368.049 218.856 367.237C 218.307 366.695 217.659 366.267 216.947 365.979C 216.235 365.69 215.474 365.546 214.707 365.555C 213.94 365.565 213.183 365.727 212.478 366.032C 211.773 366.337 211.135 366.78 210.599 367.335L210.599 367.335L210.599 367.384z" stroke="none" fill="#E0E0E0" fill-rule="nonzero" />
        <path d="M89.1085 73.5989C 89.8042 73.1733 90.5524 72.8425 91.3337 72.6149L91.3337 72.6149L91.7958 70.3886L95.5046 70.3886L96.064 72.5288C 96.852 72.7313 97.6119 73.033 98.3257 73.4267L98.3257 73.4267L100.198 72.1967L102.874 74.8043L101.658 76.7477C 102.078 77.4514 102.405 78.2083 102.63 78.9986L102.63 78.9986L104.831 79.466L104.831 83.156L102.643 83.6972C 102.452 84.4956 102.158 85.265 101.767 85.985L101.767 85.985L102.983 87.8792L100.405 90.5852L98.4838 89.3552C 97.7881 89.7808 97.0399 90.1116 96.2585 90.3392L96.2585 90.3392L95.7965 92.5655L92.1485 92.5655L91.6134 90.3515C 90.8241 90.1589 90.0635 89.8611 89.3517 89.4659L89.3517 89.4659L87.479 90.6959L84.8038 88.076L86.0198 86.1449C 85.5991 85.4411 85.272 84.6843 85.047 83.894L85.047 83.894L82.8461 83.4266L82.7853 79.7366L84.9619 79.1954C 85.1621 78.3983 85.4603 77.6297 85.8496 76.9076L85.8496 76.9076L84.6336 75.0134L87.2115 72.3074L89.1328 73.5374L89.1085 73.5989zM91.0905 78.605C 90.5428 79.179 90.1756 79.9044 90.0353 80.6894C 89.8951 81.4745 89.9881 82.284 90.3026 83.0156C 90.6171 83.7472 91.139 84.3681 91.8022 84.7997C 92.4655 85.2314 93.2404 85.4544 94.029 85.4406C 94.8176 85.4269 95.5844 85.177 96.2326 84.7225C 96.8808 84.2679 97.3812 83.6292 97.6706 82.8871C 97.9599 82.145 98.0253 81.3327 97.8584 80.553C 97.6915 79.7733 97.2998 79.0612 96.7328 78.5066C 96.356 78.1381 95.9112 77.8483 95.4237 77.6538C 94.9361 77.4593 94.4155 77.3639 93.8915 77.373C 93.3675 77.3822 92.8504 77.4957 92.3698 77.7071C 91.8892 77.9185 91.4545 78.2236 91.0905 78.605z" stroke="none" fill="#E0E0E0" fill-rule="nonzero" />
        <path d="M270.633 65.69C 272.005 64.8514 273.481 64.202 275.023 63.7589L275.023 63.7589L275.923 59.3678L283.219 59.2325L284.276 63.599C 285.836 63.9846 287.337 64.5803 288.739 65.3702L288.739 65.3702L292.387 62.9102L297.774 68.15L295.488 71.9384C 296.32 73.3288 296.962 74.8266 297.397 76.391L297.397 76.391L301.75 77.3012L301.872 84.6812L297.567 85.7513C 297.176 87.3366 296.579 88.8627 295.792 90.29L295.792 90.29L298.224 94.0538L293.129 99.392L289.335 97.0673C 287.962 97.9033 286.486 98.5526 284.945 98.9984L284.945 98.9984L284.033 103.389L276.737 103.525L275.679 99.1583C 274.104 98.7818 272.586 98.1901 271.168 97.3994L271.168 97.3994L267.52 99.8594L262.23 94.7057L264.529 90.8681C 263.701 89.4754 263.059 87.9783 262.62 86.4155L262.62 86.4155L258.278 85.5053L258.145 78.1253L262.461 77.0552C 262.843 75.4819 263.432 73.9677 264.212 72.5534L264.212 72.5534L261.78 68.7896L266.876 63.4514L270.633 65.69zM274.548 75.53C 273.467 76.665 272.742 78.099 272.466 79.6507C 272.19 81.2024 272.375 82.802 272.998 84.2472C 273.621 85.6924 274.654 86.9183 275.965 87.7698C 277.277 88.6213 278.809 89.0602 280.367 89.031C 281.926 89.0017 283.441 88.5056 284.72 87.6055C 286 86.7053 286.987 85.4415 287.556 83.9739C 288.126 82.5063 288.252 80.9009 287.919 79.3606C 287.587 77.8204 286.81 76.4145 285.687 75.3209C 284.936 74.5999 284.053 74.0358 283.086 73.6609C 282.12 73.2861 281.089 73.1078 280.055 73.1364C 279.02 73.1649 278.001 73.3998 277.056 73.8274C 276.111 74.255 275.259 74.867 274.548 75.6284L274.548 75.6284L274.548 75.53z" stroke="none" fill="#EBEBEB" fill-rule="nonzero" />
        <path d="M464.767 249.083C 466.526 248.011 468.42 247.184 470.397 246.623L470.397 246.623L471.613 240.977L481.037 240.805L482.399 246.414C 484.401 246.907 486.328 247.673 488.127 248.689L488.127 248.689L492.881 245.528L499.667 252.158L496.724 257.078C 497.777 258.865 498.594 260.784 499.156 262.785L499.156 262.785L504.737 264.015L504.908 273.548L499.363 274.925C 498.875 276.946 498.118 278.891 497.113 280.706L497.113 280.706L500.238 285.528L493.696 292.317L488.832 289.329C 487.068 290.399 485.17 291.226 483.19 291.789L483.19 291.789L481.974 297.434L472.55 297.594L471.188 292.01C 469.191 291.511 467.27 290.746 465.473 289.734L465.473 289.734L460.706 292.896L453.921 286.266L456.876 281.346C 455.816 279.567 454.998 277.651 454.444 275.651L454.444 275.651L448.862 274.421L448.704 264.95L454.237 263.572C 454.73 261.549 455.486 259.601 456.486 257.779L456.486 257.779L453.361 252.97L459.916 246.106L464.78 249.095L464.767 249.083zM469.789 261.789C 468.401 263.246 467.471 265.086 467.116 267.078C 466.762 269.069 466.999 271.123 467.798 272.978C 468.597 274.833 469.921 276.407 471.604 277.501C 473.287 278.595 475.253 279.159 477.254 279.123C 479.254 279.087 481.199 278.452 482.842 277.298C 484.486 276.144 485.754 274.524 486.487 272.641C 487.22 270.758 487.384 268.697 486.96 266.72C 486.535 264.742 485.541 262.936 484.102 261.531C 483.146 260.595 482.018 259.859 480.781 259.366C 479.543 258.872 478.222 258.63 476.893 258.654C 475.563 258.678 474.251 258.968 473.032 259.505C 471.813 260.043 470.711 260.819 469.789 261.789z" stroke="none" fill="#E0E0E0" fill-rule="nonzero" />
        <path d="M531.392 63.5006C 531.399 59.5277 530.5 55.6066 528.765 52.0424C 527.03 48.4782 524.505 45.3669 521.388 42.9504C 518.27 40.534 514.643 38.8776 510.79 38.11C 506.936 37.3424 502.959 37.4844 499.169 38.5248C 495.378 39.5653 491.876 41.4762 488.934 44.1089C 485.993 46.7416 483.691 50.0252 482.209 53.7043C 480.726 57.3833 480.103 61.3587 480.387 65.3213C 480.671 69.2838 481.855 73.1266 483.846 76.5509L483.846 76.5509L483.919 76.6493C 484.892 78.3221 486.12 79.5152 487.361 81.2618L487.361 81.2618L502.208 101.139C 502.639 101.703 503.191 102.16 503.824 102.474C 504.456 102.788 505.151 102.952 505.856 102.952C 506.561 102.952 507.256 102.788 507.888 102.474C 508.521 102.16 509.073 101.703 509.504 101.139L509.504 101.139L524.096 81.5939C 525.422 80.0249 526.66 78.3824 527.805 76.6739L527.805 76.6739L527.866 76.6001C 530.181 72.6326 531.399 68.108 531.392 63.5006zM505.856 74.7428C 503.634 74.7404 501.463 74.0717 499.617 72.8214C 497.771 71.5711 496.333 69.7953 495.484 67.7183C 494.636 65.6414 494.415 63.3566 494.85 61.1528C 495.285 58.949 496.356 56.9251 497.928 55.3368C 499.499 53.7486 501.501 52.6674 503.681 52.2299C 505.86 51.7923 508.118 52.0181 510.171 52.8787C 512.223 53.7393 513.977 55.196 515.211 57.0647C 516.445 58.9334 517.104 61.1303 517.104 63.3776C 517.104 64.8711 516.813 66.35 516.248 67.7297C 515.682 69.1094 514.853 70.3628 513.809 71.4183C 512.764 72.4739 511.524 73.3108 510.16 73.8812C 508.795 74.4516 507.333 74.7444 505.856 74.7428z" stroke="none" fill="#E0E0E0" fill-rule="nonzero" />
        <path d="M81.8003 435.243C 84.3881 433.424 86.3908 430.875 87.5602 427.915C 88.7296 424.954 89.0143 421.712 88.3789 418.589C 86.713 409.746 78.6509 403.829 70.5158 405.416C 62.3808 407.003 57.0182 415.44 58.6841 424.296C 59.2282 427.464 60.689 430.397 62.8817 432.725C 65.0745 435.052 67.9005 436.669 71.0022 437.371C 48.8467 445.342 54.72 470.237 54.72 470.237L54.72 470.237L108.747 459.856C 108.747 459.856 105.099 434.247 81.8003 435.243z" stroke="none" fill="#EBEBEB" fill-rule="nonzero" />
        <path d="M147.258 541.368L136.192 538.588C 136.192 538.588 133.894 548.035 124.141 545.784C 122.256 545.385 120.54 544.402 119.232 542.972C 117.925 541.541 117.09 539.733 116.845 537.801C 116.615 536.182 116.768 534.531 117.29 532.983C 117.812 531.436 118.689 530.035 119.849 528.896C 122.5 526.214 127.34 524.382 134.441 527.592L134.441 527.592L140.63 502.217L129.626 499.474L125.978 514.345C 125.978 514.345 109.574 514.529 105.391 531.725C 101.378 548.182 115.034 555.636 121.284 557.186C 126.075 558.379 142.625 561.269 147.258 541.368z" stroke="none" fill="#EBEBEB" fill-rule="nonzero" />
        <path d="M130.759 494.22L141.916 497.001L144.485 486.455L133.327 483.674L130.759 494.22z" stroke="none" fill="#EBEBEB" fill-rule="nonzero" />
        <path d="M70.528 270.116L95.9302 270.116L93.6928 281.641L47.9347 281.641L49.7466 272.478L77.289 250.645C 84.0986 245.135 86.1779 241.912 86.1779 237.89C 86.1779 233.868 83.1501 231.162 77.289 231.162C 74.8151 231.199 72.3803 231.792 70.1599 232.895C 67.9394 233.999 65.9887 235.587 64.448 237.546L64.448 237.546L55.0362 230.645C 59.9002 223.917 68.935 219.465 79.3562 219.465C 92.1363 219.465 100.502 226.365 100.502 235.885C 100.502 243.13 97.2314 249.243 86.6035 257.545L86.6035 257.545L70.528 270.116z" stroke="none" fill="#263238" fill-rule="nonzero" />
        <path d="M156.451 268.812L146.528 268.812L144.023 281.641L130.38 281.641L132.97 268.812L100.417 268.812L102.229 259.292L137.809 220.51L153.082 220.51L119.934 257.275L135.815 257.275L138.065 245.836L151.1 245.836L148.851 257.275L158.785 257.275L156.451 268.812z" stroke="none" fill="#263238" fill-rule="nonzero" />
        <path d="M196.335 208.112L208.945 208.112L164.573 290.374L152 290.374L196.335 208.112z" stroke="none" fill="#263238" fill-rule="nonzero" />
        <path d="M253.925 220.51L252.113 229.686L219.828 281.641L204.288 281.641L235.272 232.035L215.682 232.035L213.688 241.998L201.26 241.998L205.504 220.51L253.925 220.51z" stroke="none" fill="#263238" fill-rule="nonzero" />
        <path d="M42.2803 329.869L45.8189 323.08C 48.9727 325.118 52.6314 326.214 56.3738 326.241C 59.8272 326.241 61.8214 325.146 61.8214 323.4C 61.8214 319.082 46.4026 321.469 46.4026 311.383C 46.4026 304.458 52.2515 299.919 61.639 299.919C 65.6205 299.785 69.5643 300.737 73.0573 302.674L73.0573 302.674L69.7984 309.414C 67.1815 307.785 64.1646 306.933 61.0918 306.954C 57.3709 306.954 55.3766 308.332 55.3766 310.079C 55.3766 314.482 70.7955 311.961 70.7955 321.862C 70.7955 328.738 64.8128 333.276 55.5226 333.276C 50.0749 333.301 45.1379 331.837 42.2803 329.869z" stroke="none" fill="#263238" fill-rule="nonzero" />
        <path d="M86.7859 307.582L85.7523 312.994L99.8458 312.994L98.496 319.771L84.3904 319.771L83.2473 325.651L99.8944 325.651L98.4352 332.661L72.96 332.661L79.3562 300.62L104.199 300.62L102.788 307.643L86.7859 307.582z" stroke="none" fill="#263238" fill-rule="nonzero" />
        <path d="M127.352 323.031L132.751 332.661L123.363 332.661L118.645 324.138L114.122 324.138L112.444 332.661L103.469 332.661L109.805 300.62L123.363 300.62C 131.474 300.62 136.143 304.433 136.143 310.854C 136.207 313.579 135.38 316.25 133.79 318.451C 132.201 320.653 129.938 322.263 127.352 323.031zM122.099 307.717L117.38 307.717L115.52 317.114L120.87 317.114C 124.822 317.114 127.133 315.195 127.133 311.665C 127.084 308.959 125.175 307.717 122.099 307.717z" stroke="none" fill="#263238" fill-rule="nonzero" />
        <path d="M175.481 300.62L155.648 332.661L146.808 332.661L139.536 300.62L148.741 300.62L153.277 321.53L166.239 300.62L175.481 300.62z" stroke="none" fill="#263238" fill-rule="nonzero" />
        <path d="M177.378 300.62L186.364 300.62L179.968 332.661L170.994 332.661L177.378 300.62z" stroke="none" fill="#263238" fill-rule="nonzero" />
        <path d="M187.763 319.181C 187.763 308.037 195.873 299.919 207.656 299.919C 213.505 299.919 218.272 302.084 220.534 305.971L220.534 305.971L214.016 311.198C 213.288 310.005 212.255 309.033 211.027 308.383C 209.799 307.734 208.42 307.432 207.036 307.508C 200.871 307.508 196.785 312.317 196.785 318.639C 196.785 322.957 199.692 325.847 204.543 325.847C 206.025 325.854 207.489 325.527 208.829 324.888C 210.169 324.25 211.351 323.317 212.289 322.157L212.289 322.157L217.591 327.422C 214.016 331.788 209.347 333.387 203.68 333.387C 193.976 333.301 187.763 327.569 187.763 319.181z" stroke="none" fill="#263238" fill-rule="nonzero" />
        <path d="M233.63 307.582L232.584 312.994L246.678 312.994L245.364 319.771L231.222 319.771L230.092 325.651L246.726 325.651L245.279 332.661L219.853 332.661L226.176 300.62L251.019 300.62L249.62 307.643L233.63 307.582z" stroke="none" fill="#263238" fill-rule="nonzero" />
        <path d="M76.7904 202.417L59.0733 202.417C 59.0733 177.472 69.0566 151.987 86.4576 132.43C 104.771 111.877 128.543 100.561 153.338 100.561C 204.008 100.561 239.406 137.977 239.406 191.581L239.406 191.581L221.725 191.581C 221.725 147.879 194.256 118.519 153.374 118.519C 113.295 118.482 76.7904 158.481 76.7904 202.417z" stroke="none" fill="#5ED8FF" fill-rule="nonzero" />
        <path d="M86.5062 197.435C 89.3395 197.435 91.6378 197.718 91.6256 197.977C 91.6134 198.235 89.3274 198.432 86.5062 198.432C 83.6851 198.432 81.3747 198.198 81.3747 197.89C 81.3747 197.583 83.6851 197.386 86.5062 197.435z" stroke="none" fill="#263238" fill-rule="nonzero" />
        <path d="M98.7392 158.149C 101.171 159.724 102.813 161.335 102.545 161.765C 102.278 162.196 100.113 161.322 97.6813 159.834C 95.2493 158.346 93.632 156.71 93.8874 156.218C 94.1427 155.726 96.368 156.587 98.7392 158.149z" stroke="none" fill="#263238" fill-rule="nonzero" />
        <path d="M129.382 131.077C 130.538 133.697 131.109 135.997 130.598 136.194C 130.088 136.39 128.787 134.484 127.546 131.913C 126.306 129.343 125.734 126.993 126.33 126.796C 126.926 126.6 128.239 128.42 129.382 131.077z" stroke="none" fill="#263238" fill-rule="nonzero" />
        <path d="M169.754 127.854C 169.048 130.634 168.088 132.774 167.613 132.676C 167.139 132.577 167.236 130.216 167.844 127.399C 168.452 124.582 169.401 122.479 169.985 122.59C 170.568 122.7 170.459 125.087 169.754 127.854z" stroke="none" fill="#263238" fill-rule="nonzero" />
        <path d="M202.732 151.298C 200.372 152.872 198.244 153.832 197.965 153.438C 197.685 153.045 199.327 151.347 201.613 149.662C 203.899 147.977 206.039 147.03 206.38 147.522C 206.72 148.014 205.091 149.711 202.732 151.298z" stroke="none" fill="#263238" fill-rule="nonzero" />
        <path d="M213.59 189.92C 210.769 189.92 208.471 189.699 208.471 189.453C 208.471 189.207 210.757 188.961 213.59 188.924C 216.424 188.887 218.71 189.096 218.722 189.391C 218.734 189.686 216.448 189.92 213.59 189.92z" stroke="none" fill="#263238" fill-rule="nonzero" />
        <path d="M148.534 195.258C 147.652 195.264 146.794 194.965 146.102 194.41L146.102 194.41L116.323 171.039C 115.497 170.387 114.961 169.43 114.834 168.378C 114.706 167.326 114.997 166.266 115.642 165.431C 116.287 164.596 117.233 164.054 118.273 163.925C 119.313 163.796 120.361 164.089 121.187 164.742L121.187 164.742L148.352 186.046L185.866 151.2C 186.632 150.48 187.649 150.098 188.693 150.137C 189.737 150.177 190.724 150.634 191.435 151.409C 192.146 152.183 192.524 153.212 192.485 154.269C 192.446 155.325 191.994 156.323 191.228 157.042L191.228 157.042L151.258 194.188C 150.518 194.883 149.544 195.265 148.534 195.258z" stroke="none" fill="#5ED8FF" fill-rule="nonzero" />
        <path d="M168.732 74.2139L134.587 74.2139C 134.056 74.2139 133.626 74.6489 133.626 75.1856L133.626 75.1856L133.626 87.6947C 133.626 88.2314 134.056 88.6664 134.587 88.6664L134.587 88.6664L168.732 88.6664C 169.263 88.6664 169.693 88.2314 169.693 87.6947L169.693 87.6947L169.693 75.1856C 169.693 74.6489 169.263 74.2139 168.732 74.2139z" stroke="none" fill="#5ED8FF" fill-rule="nonzero" />
        <path d="M160.974 81.4463L142.333 81.4463L142.333 98.5433L160.974 98.5433L160.974 81.4463z" stroke="none" fill="#5ED8FF" fill-rule="nonzero" />
        <path d="M74.7115 118.444L60.7086 135.986C 60.1643 136.668 60.2695 137.667 60.9436 138.217L60.9436 138.217L70.5179 146.037C 71.1919 146.588 72.1795 146.481 72.7238 145.799L72.7238 145.799L86.7267 128.258C 87.2709 127.576 87.1657 126.577 86.4917 126.027L86.4917 126.027L76.9174 118.207C 76.2434 117.656 75.2558 117.763 74.7115 118.444z" stroke="none" fill="#5ED8FF" fill-rule="nonzero" />
        <path d="M168.732 88.6664C 168.732 88.8755 161.084 89.0354 151.708 89.0354C 142.333 89.0354 134.684 88.8755 134.684 88.6664C 134.684 88.4573 142.321 88.2974 151.708 88.2974C 161.096 88.2974 168.732 88.4696 168.732 88.6664z" stroke="none" fill="#263238" fill-rule="nonzero" />
        <path d="M74.3949 142.786C 74.2003 143.008 71.6224 141.015 68.4365 138.592C 65.2506 136.169 62.6605 134.201 62.8186 133.955C 62.9766 133.709 65.8342 135.308 69.0566 137.756C 72.279 140.203 74.5773 142.577 74.3949 142.786z" stroke="none" fill="#263238" fill-rule="nonzero" />
        <path d="M77.3619 138.371C 77.1674 138.592 74.5895 136.6 71.4035 134.176C 68.2176 131.753 65.6154 129.785 65.7735 129.539C 65.9315 129.293 68.8013 130.892 72.0237 133.352C 75.2461 135.812 77.5443 138.162 77.3619 138.371z" stroke="none" fill="#263238" fill-rule="nonzero" />
        <path d="M80.9978 134.668C 80.8154 134.89 78.2375 132.897 75.0515 130.474C 71.8656 128.051 69.312 126.083 69.4215 125.837C 69.5309 125.591 72.4493 127.19 75.6595 129.65C 78.8698 132.11 81.1923 134.459 80.9978 134.668z" stroke="none" fill="#263238" fill-rule="nonzero" />
        <path d="M84.5242 130.253C 84.3418 130.474 81.7517 128.482 78.5658 126.058C 75.3798 123.635 72.7898 121.667 72.96 121.421C 73.1302 121.175 75.9878 122.774 79.1981 125.234C 82.4083 127.694 84.7066 130.044 84.5242 130.253z" stroke="none" fill="#263238" fill-rule="nonzero" />
        <path d="M237.372 123.989L222.299 107.379C 221.713 106.734 220.721 106.691 220.083 107.283L220.083 107.283L211.017 115.701C 210.379 116.294 210.336 117.297 210.922 117.943L210.922 117.943L225.995 134.552C 226.581 135.198 227.573 135.241 228.211 134.648L228.211 134.648L237.277 126.231C 237.915 125.638 237.958 124.634 237.372 123.989z" stroke="none" fill="#5ED8FF" fill-rule="nonzero" />
        <path d="M213.615 120.081C 213.432 119.859 215.755 117.621 218.6 114.742C 221.446 111.864 223.744 109.613 223.963 109.822C 224.182 110.032 222.2 112.651 219.318 115.505C 216.436 118.359 213.785 120.29 213.615 120.081z" stroke="none" fill="#263238" fill-rule="nonzero" />
        <path d="M217.494 123.697C 217.299 123.475 219.634 121.237 222.467 118.359C 225.3 115.48 227.623 113.23 227.842 113.439C 228.061 113.648 226.067 116.268 223.197 119.121C 220.327 121.975 217.664 123.906 217.494 123.697z" stroke="none" fill="#263238" fill-rule="nonzero" />
        <path d="M220.57 127.891C 220.376 127.67 222.71 125.431 225.544 122.553C 228.377 119.675 230.7 117.424 230.918 117.633C 231.137 117.842 229.143 120.45 226.261 123.303C 223.379 126.157 220.74 128.1 220.57 127.891z" stroke="none" fill="#263238" fill-rule="nonzero" />
        <path d="M224.364 132.11C 224.17 131.889 226.504 129.65 229.338 126.772C 232.171 123.894 234.493 121.643 234.712 121.852C 234.931 122.061 232.937 124.681 230.055 127.534C 227.173 130.388 224.534 132.282 224.364 132.11z" stroke="none" fill="#263238" fill-rule="nonzero" />
        <path d="M138.417 88.6541C 138.138 88.6541 137.907 85.4561 137.907 81.5324C 137.907 77.6087 138.138 74.3984 138.417 74.3984C 138.697 74.3984 138.94 77.5964 138.94 81.5324C 138.94 85.4684 138.709 88.6541 138.417 88.6541z" stroke="none" fill="#263238" fill-rule="nonzero" />
        <path d="M145.105 88.6541C 144.826 88.6541 144.595 85.4561 144.595 81.5324C 144.595 77.6087 144.826 74.3984 145.105 74.3984C 145.385 74.3984 145.616 77.5964 145.616 81.5324C 145.616 85.4684 145.385 88.6541 145.105 88.6541z" stroke="none" fill="#263238" fill-rule="nonzero" />
        <path d="M151.781 88.6541C 151.501 88.6541 151.27 85.4561 151.27 81.5324C 151.27 77.6087 151.501 74.3984 151.781 74.3984C 152.061 74.3984 152.292 77.5964 152.292 81.5324C 152.292 85.4684 152.073 88.6541 151.781 88.6541z" stroke="none" fill="#263238" fill-rule="nonzero" />
        <path d="M158.469 88.6541C 158.177 88.6541 157.958 85.4561 157.958 81.5324C 157.958 77.6087 158.177 74.3984 158.469 74.3984C 158.761 74.3984 158.98 77.5964 158.98 81.5324C 158.98 85.4684 158.749 88.6541 158.469 88.6541z" stroke="none" fill="#263238" fill-rule="nonzero" />
        <path d="M165.145 88.6541C 164.865 88.6541 164.634 85.4561 164.634 81.5324C 164.634 77.6087 164.865 74.3984 165.145 74.3984C 165.425 74.3984 165.656 77.5964 165.656 81.5324C 165.656 85.4684 165.376 88.6541 165.145 88.6541z" stroke="none" fill="#263238" fill-rule="nonzero" />
        <path d="M155.762 196.288C 159.248 192.762 159.248 187.046 155.762 183.52C 152.277 179.994 146.625 179.994 143.14 183.52C 139.654 187.046 139.654 192.762 143.14 196.288C 146.625 199.813 152.277 199.814 155.762 196.288z" stroke="none" fill="#5ED8FF" fill-rule="nonzero" />
        <path d="M158.372 189.92C 158.287 189.92 158.299 189.121 157.922 187.755C 157.381 185.85 156.231 184.18 154.651 183.007C 153.385 182.056 151.882 181.48 150.31 181.342C 148.739 181.204 147.161 181.511 145.751 182.228C 144.342 182.945 143.158 184.044 142.33 185.402C 141.503 186.76 141.064 188.325 141.064 189.92C 141.064 191.515 141.503 193.08 142.33 194.438C 143.158 195.796 144.342 196.895 145.751 197.612C 147.161 198.329 148.739 198.636 150.31 198.498C 151.882 198.36 153.385 197.784 154.651 196.833C 156.228 195.657 157.378 193.988 157.922 192.085C 158.299 190.719 158.287 189.92 158.372 189.92C 158.457 189.92 158.372 190.117 158.372 190.498C 158.391 191.061 158.334 191.624 158.202 192.171C 157.765 194.224 156.629 196.057 154.991 197.349C 153.768 198.321 152.321 198.963 150.786 199.217C 149.251 199.471 147.677 199.328 146.212 198.801C 144.397 198.15 142.827 196.947 141.716 195.357C 140.605 193.767 140.009 191.867 140.009 189.92C 140.009 187.973 140.605 186.074 141.716 184.483C 142.827 182.893 144.397 181.69 146.212 181.039C 147.677 180.514 149.249 180.371 150.784 180.622C 152.318 180.874 153.765 181.512 154.991 182.479C 156.628 183.776 157.764 185.613 158.202 187.669C 158.334 188.216 158.391 188.779 158.372 189.342C 158.433 189.699 158.408 189.92 158.372 189.92z" stroke="none" fill="#263238" fill-rule="nonzero" />
        <path d="M463.624 220.842L478.873 218.382C 488.867 226.539 501.517 230.619 514.335 229.821C 527.152 229.022 539.211 223.402 548.14 214.066C 557.069 204.73 562.223 192.354 562.588 179.369C 562.953 166.384 558.503 153.731 550.113 143.897C 541.723 134.063 529.999 127.759 517.247 126.225C 504.495 124.691 491.637 128.037 481.2 135.607C 470.764 143.176 463.504 154.42 460.848 167.129C 458.192 179.838 460.331 193.092 466.847 204.286L466.847 204.286L463.624 220.842z" stroke="none" fill="#FFFFFF" fill-rule="nonzero" />
        <path d="M463.624 220.842C 463.624 220.842 463.624 220.498 463.795 219.797L463.795 219.797L464.378 216.648C 464.901 213.819 465.679 209.674 466.689 204.262C 466.691 204.244 466.698 204.227 466.707 204.212C 466.717 204.197 466.73 204.185 466.745 204.176C 466.76 204.166 466.777 204.16 466.795 204.158C 466.812 204.156 466.83 204.158 466.847 204.163C 466.858 204.157 466.87 204.154 466.883 204.154C 466.896 204.154 466.909 204.157 466.92 204.163L466.92 204.163L466.701 204.336C 462.349 196.906 459.889 188.5 459.539 179.871C 459.431 177.186 459.532 174.496 459.843 171.827C 460.204 168.97 460.781 166.145 461.569 163.377C 464.441 153.342 470.226 144.41 478.174 137.739C 486.122 131.068 495.868 126.964 506.148 125.96C 514.214 125.19 522.346 126.356 529.882 129.363C 537.419 132.37 544.148 137.134 549.523 143.266L549.523 143.266L551.59 145.726C 552.234 146.587 552.806 147.485 553.438 148.346C 554.639 150.096 555.731 151.92 556.709 153.807C 557.244 154.717 557.585 155.726 558.035 156.673C 558.484 157.62 558.947 158.567 559.251 159.576C 559.971 161.528 560.568 163.525 561.038 165.554C 562.909 173.438 562.971 181.651 561.22 189.563C 558.875 199.852 553.499 209.18 545.803 216.313C 538.106 223.446 528.451 228.049 518.113 229.514C 515.273 229.904 512.407 230.072 509.54 230.018C 506.879 229.89 504.228 229.603 501.6 229.157C 493.234 227.581 485.391 223.911 478.788 218.481L478.788 218.481L478.897 218.481L467.491 220.215L464.585 220.645L463.624 220.781L464.634 220.596L467.564 220.104L478.849 218.21L478.958 218.21C 485.554 223.551 493.36 227.148 501.673 228.677C 504.28 229.117 506.912 229.392 509.553 229.501C 512.399 229.548 515.245 229.371 518.065 228.973C 528.278 227.478 537.807 222.896 545.401 215.829C 552.996 208.761 558.302 199.537 560.625 189.367C 562.342 181.545 562.272 173.43 560.418 165.64C 559.942 163.639 559.353 161.668 558.655 159.736C 558.351 158.74 557.84 157.829 557.439 156.87C 557.037 155.911 556.648 154.939 556.125 154.041C 555.162 152.177 554.082 150.377 552.891 148.654C 552.283 147.793 551.675 146.907 551.067 146.058L551.067 146.058L549.024 143.598C 543.715 137.54 537.07 132.832 529.627 129.856C 522.185 126.879 514.153 125.717 506.184 126.464C 499.129 127.169 492.296 129.347 486.115 132.859C 479.934 136.371 474.541 141.142 470.276 146.87C 466.559 151.881 463.781 157.538 462.08 163.561C 461.294 166.301 460.713 169.097 460.341 171.925C 460.019 174.573 459.905 177.242 460.001 179.908C 460.298 188.476 462.683 196.838 466.944 204.249C 466.967 204.275 466.98 204.308 466.98 204.342C 466.98 204.376 466.967 204.409 466.944 204.434C 466.92 204.454 466.89 204.465 466.859 204.465C 466.828 204.465 466.798 204.454 466.774 204.434L466.774 204.434L466.993 204.36C 465.923 209.711 465.096 213.819 464.561 216.66C 464.281 218.05 464.062 219.12 463.916 219.834C 463.77 220.547 463.624 220.842 463.624 220.842z" stroke="none" fill="#263238" fill-rule="nonzero" />
        <path d="M526.723 179.44C 526.72 178.396 527.024 177.374 527.597 176.504C 528.169 175.635 528.984 174.956 529.937 174.555C 530.891 174.155 531.941 174.049 532.954 174.252C 533.967 174.455 534.898 174.958 535.628 175.697C 536.358 176.436 536.855 177.377 537.056 178.402C 537.257 179.426 537.153 180.488 536.756 181.453C 536.36 182.418 535.69 183.242 534.83 183.821C 533.97 184.399 532.96 184.707 531.927 184.705C 530.548 184.702 529.226 184.146 528.251 183.159C 527.275 182.173 526.726 180.836 526.723 179.44z" stroke="none" fill="#263238" fill-rule="nonzero" />
        <path d="M505.856 179.44C 505.854 178.396 506.158 177.375 506.729 176.505C 507.301 175.636 508.115 174.958 509.068 174.557C 510.021 174.155 511.07 174.049 512.083 174.251C 513.096 174.453 514.026 174.955 514.757 175.693C 515.488 176.43 515.986 177.37 516.188 178.394C 516.39 179.418 516.288 180.48 515.893 181.445C 515.499 182.409 514.83 183.234 513.972 183.815C 513.114 184.395 512.105 184.705 511.073 184.705C 509.691 184.705 508.366 184.151 507.388 183.164C 506.41 182.177 505.859 180.838 505.856 179.44z" stroke="none" fill="#263238" fill-rule="nonzero" />
        <path d="M485.05 182.073C 484.534 181.169 484.295 180.131 484.362 179.089C 484.43 178.048 484.801 177.05 485.429 176.222C 486.057 175.394 486.914 174.773 487.891 174.437C 488.868 174.102 489.921 174.067 490.918 174.337C 491.914 174.607 492.81 175.17 493.49 175.955C 494.17 176.739 494.605 177.71 494.74 178.745C 494.875 179.78 494.703 180.832 494.246 181.768C 493.79 182.704 493.07 183.482 492.176 184.004C 490.977 184.7 489.554 184.888 488.219 184.526C 486.884 184.164 485.744 183.282 485.05 182.073z" stroke="none" fill="#263238" fill-rule="nonzero" />
        <path d="M120.737 368.27C 117.539 366.732 112.152 363.522 108.82 362.268C 105.526 360.842 101.852 360.591 98.3987 361.554C 96.441 362.218 94.4832 363.805 94.471 365.896L94.471 365.896L107.543 375.65L120.737 372.132L120.737 368.27z" stroke="none" fill="#FF9A6C" fill-rule="nonzero" />
        <path d="M106.436 368.135C 106.436 368.135 82.9555 362.981 79.04 360.951C 75.1245 358.922 54.72 348.59 51.303 348.59C 47.8861 348.59 44.9677 349.525 44.3475 352.969L44.3475 352.969L48.8102 356.474L49.3818 358.27L57.0182 362.292L58.368 364.826L77.824 375.33C 77.824 375.33 98.2285 385.81 101.633 386.4C 105.038 386.991 122.038 388.43 129.309 394.69L129.309 394.69L158.493 382.563C 158.493 382.563 150.067 370.459 143.573 367.47C 137.785 364.814 128.069 364.814 121.272 367.63L121.272 367.63L106.436 368.135z" stroke="none" fill="#FFBF9D" fill-rule="nonzero" />
        <path d="M125.965 387.95C 125.965 387.95 163.114 469.893 169.097 486.35C 169.097 486.35 210.623 479.437 212.046 456.129L212.046 456.129L158.542 382.329L125.965 387.95z" stroke="none" fill="#FFBF9D" fill-rule="nonzero" />
        <path d="M91.4675 369.992C 91.4675 369.992 91.3216 369.992 91.0663 369.992C 90.6864 369.953 90.3115 369.875 89.9475 369.758C 88.6158 369.348 87.3219 368.821 86.0807 368.184C 84.4999 367.409 82.6637 366.388 80.6451 365.244C 79.6359 364.678 78.5779 364.076 77.4714 363.498C 76.3648 362.92 75.161 362.415 73.9328 361.874C 71.6588 360.832 69.3091 359.969 66.9043 359.291C 64.7034 358.738 62.5875 358.319 60.9946 358.861C 60.3767 359.111 59.8161 359.487 59.3476 359.965C 58.8791 360.443 58.5126 361.013 58.2707 361.64C 58.0911 362.119 57.884 362.588 57.6506 363.043C 57.6506 363.043 57.6506 362.895 57.7114 362.649C 57.7927 362.272 57.9024 361.902 58.0397 361.542C 58.2546 360.968 58.545 360.426 58.9031 359.931C 59.3763 359.253 60.0359 358.731 60.8 358.43C 61.7426 358.111 62.7442 358.01 63.7306 358.135C 64.8336 358.245 65.927 358.438 67.0016 358.713C 69.4577 359.368 71.857 360.223 74.176 361.271C 75.392 361.813 76.608 362.317 77.7389 362.92C 78.8698 363.522 79.9155 364.15 80.9248 364.728C 82.9312 365.896 84.7309 366.954 86.2752 367.766C 87.4718 368.427 88.7109 369.006 89.984 369.5C 90.9325 369.857 91.4675 369.931 91.4675 369.992z" stroke="none" fill="#FF9A6C" fill-rule="nonzero" />
        <path d="M69.0688 358.209C 67.924 357.975 66.8156 357.586 65.7734 357.052C 63.2655 355.855 60.6867 354.816 58.0518 353.941C 56.6101 353.527 55.1034 353.398 53.6134 353.559C 53.0189 353.577 52.4343 353.718 51.895 353.971C 51.3557 354.225 50.873 354.587 50.4762 355.035C 50.0006 355.702 49.6881 356.473 49.5642 357.286C 49.5531 357.602 49.4915 357.913 49.3818 358.209C 49.3249 357.896 49.3249 357.575 49.3818 357.261C 49.4272 356.384 49.7044 355.534 50.1843 354.801C 50.5565 354.289 51.0388 353.868 51.5949 353.571C 52.2309 353.266 52.9133 353.07 53.6134 352.993C 55.1818 352.794 56.7739 352.915 58.295 353.35C 60.9673 354.217 63.5559 355.329 66.0288 356.671C 67.0687 357.128 68.0835 357.641 69.0688 358.209z" stroke="none" fill="#FF9A6C" fill-rule="nonzero" />
        <path d="M127.68 365.81C 127.68 365.81 127.352 366.007 126.732 366.228C 125.842 366.553 124.937 366.832 124.02 367.065C 121.001 367.859 117.907 368.325 114.79 368.454C 111.675 368.591 108.553 368.401 105.476 367.889C 104.26 367.68 103.36 367.471 102.716 367.286C 102.371 367.234 102.038 367.121 101.731 366.954C 101.731 366.855 103.19 367.138 105.549 367.434C 108.606 367.816 111.689 367.944 114.766 367.815C 117.846 367.654 120.908 367.243 123.923 366.585C 126.172 366.142 127.595 365.724 127.68 365.81z" stroke="none" fill="#FF9A6C" fill-rule="nonzero" />
        <path d="M473.559 317.164L419.52 305.847L406.144 295.7L334.765 309.624C 333.622 311.739 322.058 328.074 322.058 328.074L322.058 328.074L293.944 337.729C 281.995 340.905 271.33 347.787 263.446 357.409C 255.95 366.774 249.809 377.169 245.206 388.282C 232.56 418.306 214.308 452.992 214.308 452.992L214.308 452.992L202.865 434.346L154.639 457.322C 154.639 457.322 182.886 514.923 192.237 523.152C 202.634 532.291 226.541 533.348 243.066 516.301C 253.025 506.018 281.808 465.379 287.803 455.206L287.803 455.206L296.704 497.74L304.888 546.288L291.658 579.707L484.758 579.707L476.769 548.121C 476.769 548.121 484.637 465.797 486.813 450.471C 491.933 414.321 473.559 317.164 473.559 317.164z" stroke="none" fill="#5ED8FF" fill-rule="nonzero" />
        <path d="M473.559 317.164C 473.559 317.164 512.228 328.135 520.74 367.015C 525.896 390.57 543.406 457.716 549.571 512.992C 553.219 545.857 553.122 576.226 553.219 579.707L553.219 579.707L493.878 579.707L468.732 328.135L473.559 317.164z" stroke="none" fill="#5ED8FF" fill-rule="nonzero" />
        <path d="M374.382 350.546C 374.382 350.546 374.382 350.693 374.224 350.952L374.224 350.952L373.677 352.083C 373.19 353.079 372.461 354.543 371.67 356.401C 369.956 360.091 367.937 365.564 364.678 371.677L364.678 371.677L364.52 371.985L364.253 371.751C 360.24 368.295 355.887 364.137 351.388 359.648C 343.423 351.653 336.443 344.211 331.287 338.934L331.287 338.934L325.146 332.698L323.456 331.013C 323.25 330.827 323.063 330.621 322.897 330.398C 323.132 330.548 323.348 330.726 323.541 330.927L323.541 330.927L325.292 332.526C 326.8 333.928 328.94 336.007 331.579 338.615C 336.82 343.818 343.86 351.21 351.801 359.193C 356.3 363.682 360.629 367.803 364.593 371.32L364.593 371.32L364.156 371.394C 367.439 365.367 369.53 359.918 371.33 356.253C 372.218 354.396 372.959 352.969 373.494 351.997C 373.738 351.567 373.944 351.198 374.115 350.915C 374.19 350.782 374.28 350.659 374.382 350.546z" stroke="none" fill="#000000" fill-rule="nonzero" />
        <path d="M420.274 307.237C 420.27 307.528 420.233 307.817 420.164 308.098C 420.043 308.713 419.897 309.525 419.715 310.558C 419.277 312.674 418.499 315.724 417.501 319.439C 415.398 326.819 411.993 337.016 407.773 348.024C 405.548 353.854 403.359 359.365 401.316 364.248L401.316 364.248L401.158 364.629L400.854 364.359C 395.346 359.439 390.409 355.564 387.065 352.686C 385.387 351.247 384.074 350.091 383.186 349.279L383.186 349.279L382.201 348.344C 381.97 348.123 381.86 348.012 381.873 348C 382.013 348.074 382.143 348.164 382.262 348.27L382.262 348.27L383.307 349.144L387.284 352.415C 390.701 355.22 395.674 359.02 401.243 363.916L401.243 363.916L400.781 364.026C 402.788 359.106 404.964 353.621 407.178 347.803C 411.348 336.733 414.814 326.708 417.015 319.316C 418.109 315.626 418.912 312.6 419.447 310.497C 419.678 309.501 419.873 308.701 420.019 308.037C 420.084 307.764 420.169 307.497 420.274 307.237z" stroke="none" fill="#000000" fill-rule="nonzero" />
        <path d="M295.184 492.291C 295.133 492.207 295.096 492.116 295.075 492.02L295.075 492.02L294.819 491.184C 294.6 490.364 294.296 489.282 293.907 487.937C 293.494 486.535 293.092 484.8 292.606 482.783C 292.12 480.766 291.597 478.453 291.074 475.895C 288.384 462.55 286.491 449.053 285.407 435.477C 284.033 419.573 283.729 405.121 283.802 394.678C 283.802 389.451 283.936 385.219 284.082 382.304C 284.155 380.878 284.204 379.758 284.24 378.934C 284.24 378.59 284.24 378.295 284.301 378.061C 284.288 377.963 284.288 377.864 284.301 377.766C 284.311 377.868 284.311 377.971 284.301 378.073L284.301 378.073L284.301 378.946C 284.301 379.771 284.301 380.89 284.301 382.304C 284.301 385.232 284.204 389.451 284.228 394.678C 284.228 405.109 284.641 419.549 286.015 435.416C 287.109 448.971 288.936 462.456 291.487 475.809C 291.986 478.367 292.448 480.729 292.922 482.697C 293.396 484.665 293.749 486.473 294.138 487.875L294.138 487.875L294.941 491.147L295.123 491.996C 295.184 492.193 295.196 492.291 295.184 492.291z" stroke="none" fill="#000000" fill-rule="nonzero" />
        <path d="M476.769 360.287C 476.841 360.394 476.899 360.509 476.939 360.632C 477.049 360.89 477.195 361.222 477.365 361.64C 477.754 362.575 478.277 363.891 478.958 365.552C 479.299 366.413 479.7 367.348 480.089 368.393L480.089 368.393L481.244 371.837C 481.658 373.067 482.095 374.408 482.57 375.81C 483.044 377.212 483.36 378.75 483.786 380.336C 487.434 392.993 489.258 411.308 488.212 431.344C 487.166 451.381 484.831 469.474 483.348 482.463C 482.606 488.958 481.998 494.234 481.572 497.924C 481.366 499.708 481.195 501.122 481.074 502.119L481.074 502.119L480.928 503.213C 480.919 503.339 480.895 503.463 480.855 503.582C 480.839 503.46 480.839 503.336 480.855 503.213L480.855 503.213L480.94 502.106C 481.037 501.098 481.171 499.646 481.329 497.9C 481.67 494.21 482.205 488.945 482.898 482.414C 484.223 469.351 486.461 451.32 487.531 431.32C 488.601 411.32 486.801 393.104 483.311 380.447L483.311 380.447L482.095 375.921L480.879 371.96C 480.49 370.73 480.125 369.561 479.785 368.504C 479.444 367.446 479.031 366.499 478.703 365.638C 478.07 363.953 477.584 362.637 477.219 361.689C 477.073 361.259 476.952 360.927 476.854 360.656C 476.807 360.538 476.779 360.414 476.769 360.287z" stroke="none" fill="#000000" fill-rule="nonzero" />
        <path d="M214.624 494.874C 214.454 494.874 214.247 485.501 214.174 473.964C 214.101 462.427 214.174 453.054 214.356 453.054C 214.539 453.054 214.733 462.427 214.806 473.964C 214.879 485.501 214.806 494.874 214.624 494.874z" stroke="none" fill="#000000" fill-rule="nonzero" />
        <path d="M390.093 551.638L390.093 551.122C 390.093 550.753 390.19 550.261 390.263 549.621C 390.433 548.268 390.664 546.337 390.968 543.852C 391.126 542.622 391.297 541.208 391.491 539.695C 391.686 538.182 391.832 536.509 392.014 534.775C 392.367 531.208 392.853 527.161 393.23 522.66C 393.412 520.421 393.595 518.059 393.802 515.612C 394.008 513.164 394.106 510.606 394.264 507.961C 394.628 502.672 394.787 497.002 394.993 491.049C 395.261 479.13 395.224 466.018 394.616 452.279C 394.008 438.54 392.768 425.477 391.394 413.632C 390.628 407.716 389.959 402.095 389.096 396.867C 388.694 394.248 388.342 391.714 387.88 389.291C 387.418 386.868 387.041 384.543 386.664 382.317C 385.922 377.876 385.071 373.891 384.378 370.373C 384.025 368.614 383.709 366.978 383.405 365.453C 383.101 363.928 382.772 362.587 382.493 361.357L382.493 361.357L381.277 355.687C 381.155 355.06 381.046 354.568 380.973 354.211C 380.9 353.854 380.888 353.694 380.888 353.694C 380.949 353.854 380.998 354.019 381.034 354.186L381.034 354.186L381.411 355.65L382.76 361.308L383.721 365.392C 384.037 366.892 384.378 368.516 384.755 370.312C 385.472 373.817 386.36 377.802 387.126 382.243C 387.531 384.465 387.936 386.79 388.342 389.217C 388.78 391.677 389.132 394.137 389.558 396.794C 390.433 402.033 391.126 407.655 391.917 413.571C 393.315 425.428 394.507 438.503 395.188 452.254C 395.869 466.006 395.82 479.142 395.516 491.073C 395.285 497.039 395.115 502.709 394.726 507.998C 394.556 510.642 394.434 513.201 394.227 515.661C 394.02 518.121 393.802 520.47 393.607 522.721C 393.267 527.223 392.744 531.331 392.391 534.824C 392.184 536.608 391.99 538.268 391.82 539.744C 391.649 541.22 391.418 542.647 391.236 543.902C 390.883 546.362 390.604 548.305 390.421 549.646L390.421 549.646L390.19 551.146C 390.172 551.313 390.139 551.477 390.093 551.638z" stroke="none" fill="#000000" fill-rule="nonzero" />
        <path d="M415.799 418.872L416.042 418.872L416.808 418.786L419.787 418.442L431.181 417.212L471.735 412.956L472.039 412.956L472.039 413.263C 472.343 425.674 472.708 439.721 473.085 454.616L473.085 454.616L473.085 454.751L473 454.837L468.136 460.163L450.406 479.327L450.248 479.499L450.042 479.388L420.164 464.382L420.031 464.321L420.031 464.21C 418.73 450.495 417.599 439.155 416.906 431.197C 416.541 427.285 416.261 424.21 416.067 422.082C 415.981 421.062 415.908 420.274 415.86 419.696C 415.811 419.118 415.86 418.909 415.86 418.909C 415.86 418.909 415.86 419.204 415.969 419.745C 416.079 420.287 416.127 421.135 416.249 422.205C 416.468 424.358 416.796 427.445 417.222 431.381C 418.036 439.278 419.192 450.557 420.602 464.198L420.602 464.198L420.456 463.989L450.37 478.908L450.017 478.97L467.71 459.733L472.574 454.419L472.489 454.641C 472.136 439.745 471.796 425.711 471.504 413.288L471.504 413.288L471.82 413.559L431.388 417.47L419.921 418.552L416.869 418.823L416.079 418.897L415.799 418.872z" stroke="none" fill="#000000" fill-rule="nonzero" />
        <path d="M472.112 427.531C 471.423 427.725 470.719 427.861 470.008 427.937C 468.646 428.159 466.676 428.442 464.232 428.761C 459.368 429.389 452.571 430.114 445.092 430.84L445.092 430.84L425.928 432.734L420.128 433.349C 419.424 433.464 418.713 433.517 418 433.509C 418.689 433.316 419.393 433.18 420.104 433.103C 421.466 432.882 423.436 432.599 425.88 432.279C 430.744 431.652 437.541 430.926 445.032 430.2L445.032 430.2L464.184 428.306L469.984 427.691C 470.688 427.577 471.399 427.523 472.112 427.531z" stroke="none" fill="#000000" fill-rule="nonzero" />
		<g>
            <path d="M483.859 475.907L485.901 501.036C 490.413 479.511 497.502 456.375 496.396 434.407C 495.289 412.439 493.246 391.419 481.013 371.529C 486.331 386.504 488.771 402.369 488.2 418.269C 487.081 443.976 483.859 475.907 483.859 475.907z" stroke="none" fill="#000000" fill-rule="nonzero" fill-opacity="0.29803923" />
		</g>
        <path d="M206.574 429.13C 205.917 427.616 204.755 426.384 203.291 425.649C 201.588 425.059 199.74 425.895 198.123 426.707L198.123 426.707L154.006 448.921C 151.1 450.385 147.926 452.119 146.856 455.194C 145.458 459.13 148.072 463.287 150.504 466.67C 154.566 472.316 159.43 478.466 166.312 479.265L166.312 479.265L204.264 452.943C 208.897 452.254 211.779 447.027 211.56 442.291C 211.341 437.556 208.933 433.239 206.574 429.13z" stroke="none" fill="#5ED8FF" fill-rule="nonzero" />
        <path d="M211.365 445.219C 211.253 445.377 211.122 445.522 210.976 445.649L210.976 445.649L209.76 446.793C 208.714 447.777 207.17 449.167 205.236 450.84C 201.357 454.198 195.849 458.663 189.428 463.214C 183.008 467.765 177.135 471.516 172.672 474.05C 170.459 475.342 168.647 476.35 167.382 477.014L167.382 477.014L165.923 477.765C 165.583 477.937 165.4 478.011 165.388 477.986C 165.529 477.852 165.689 477.74 165.862 477.654L165.862 477.654L167.261 476.793L172.441 473.656C 176.806 471 182.753 467.187 189.1 462.648C 195.448 458.109 200.993 453.718 204.908 450.459L204.908 450.459L209.565 446.559L210.781 445.514C 211.195 445.317 211.353 445.194 211.365 445.219z" stroke="none" fill="#000000" fill-rule="nonzero" />
		<g>
            <path d="M419.702 310.054C 414.51 327.495 407.238 347.225 401.098 364.174C 395.869 359.685 388.549 353.744 383.308 349.242C 387.818 358.293 393.233 366.854 399.468 374.789C 400.198 375.711 401.171 376.72 402.301 376.499C 403.432 376.277 403.943 375.096 404.332 374.039L404.332 374.039L413.902 348.418C 418.377 336.438 422.694 322.465 419.702 310.054z" stroke="none" fill="#000000" fill-rule="nonzero" fill-opacity="0.29803923" />
		</g>
        <path d="M337.622 120.302C 353.43 115.702 368.217 120.302 382.797 127.953C 397.377 135.603 409.135 148.235 416.748 162.934C 424.773 178.419 428.324 196.464 425.418 213.696C 422.511 230.928 412.881 247.164 398.459 256.746C 378.748 269.882 351.582 269.193 331.287 257.029C 310.992 244.864 297.628 222.441 294.09 198.837C 291.658 182.577 293.628 165.431 301.13 150.867C 308.633 136.304 321.9 124.496 337.61 120.29" stroke="none" fill="#263238" fill-rule="nonzero" />
        <path d="M389.521 170.351C 386.469 164.41 386.603 157.362 384.937 150.867C 381.289 136.587 368.399 126.267 354.391 122.147C 341.368 118.297 326.301 121.188 311.831 127.805C 301.933 132.344 292.922 139.305 287.012 148.53C 283.147 154.714 280.799 161.742 280.165 169.03C 279.53 176.317 280.627 183.653 283.364 190.424L283.364 190.424L355.583 171.212C 363.098 176.132 370.795 181.212 379.489 183.512C 382.019 184.303 384.706 184.426 387.296 183.868C 388.581 183.561 389.752 182.886 390.668 181.924C 391.584 180.963 392.208 179.754 392.464 178.444C 392.768 175.517 390.847 172.946 389.521 170.351z" stroke="none" fill="#263238" fill-rule="nonzero" />
        <path d="M406.752 299.882L388.111 167.263C 387.284 160.99 384.463 154.594 378.225 154.89L378.225 154.89L312.561 148.494C 291.986 149.453 282.331 176.784 284.155 197.484C 286.186 220.535 289.554 248.591 294.795 265.221C 305.338 298.64 331.956 298.984 331.956 298.984C 331.956 298.984 333.573 305.626 335.604 318.049L335.604 318.049L378.164 346.684L406.752 299.882z" stroke="none" fill="#FFBF9D" fill-rule="nonzero" />
        <path d="M300.024 222.712C 300.187 223.859 300.787 224.896 301.696 225.601C 302.605 226.307 303.75 226.625 304.888 226.488C 305.447 226.448 305.993 226.295 306.493 226.038C 306.992 225.781 307.436 225.425 307.798 224.992C 308.159 224.558 308.432 224.056 308.598 223.514C 308.764 222.973 308.822 222.403 308.767 221.838C 308.6 220.692 308 219.656 307.092 218.949C 306.185 218.242 305.041 217.92 303.903 218.05C 303.343 218.093 302.798 218.249 302.299 218.508C 301.8 218.766 301.357 219.123 300.996 219.557C 300.635 219.991 300.363 220.494 300.196 221.036C 300.029 221.577 299.97 222.147 300.024 222.712z" stroke="none" fill="#263238" fill-rule="nonzero" />
        <path d="M292.363 211.088C 292.983 211.58 295.901 208.628 300.583 207.903C 305.265 207.177 309.034 209.034 309.46 208.37C 309.667 208.075 308.961 207.14 307.307 206.254C 305.07 205.156 302.553 204.778 300.097 205.172C 297.664 205.537 295.41 206.679 293.664 208.431C 292.387 209.76 292.059 210.83 292.363 211.088z" stroke="none" fill="#263238" fill-rule="nonzero" />
        <path d="M343.228 215.602C 343.389 216.752 343.987 217.792 344.897 218.5C 345.806 219.208 346.953 219.528 348.092 219.391C 348.651 219.351 349.197 219.198 349.697 218.941C 350.197 218.684 350.641 218.328 351.002 217.895C 351.364 217.461 351.636 216.959 351.802 216.417C 351.969 215.876 352.026 215.306 351.971 214.741C 351.811 213.592 351.212 212.552 350.303 211.844C 349.394 211.136 348.247 210.816 347.107 210.953C 346.548 210.995 346.004 211.149 345.505 211.406C 345.006 211.664 344.562 212.019 344.201 212.453C 343.84 212.886 343.568 213.387 343.4 213.928C 343.233 214.469 343.175 215.038 343.228 215.602z" stroke="none" fill="#263238" fill-rule="nonzero" />
        <path d="M336.832 204.828C 337.452 205.32 340.383 202.368 345.052 201.642C 349.722 200.916 353.503 202.774 353.929 202.109C 354.136 201.814 353.43 200.879 351.777 199.994C 349.535 198.893 347.014 198.515 344.554 198.911C 342.09 199.278 339.809 200.439 338.048 202.22C 336.832 203.45 336.504 204.68 336.832 204.828z" stroke="none" fill="#263238" fill-rule="nonzero" />
        <path d="M326.764 242.552C 326.764 242.281 323.76 242.22 318.969 242.343C 317.753 242.343 316.537 242.343 316.257 241.543C 315.978 240.744 316.148 239.341 316.513 237.853C 317.194 234.762 317.911 231.519 318.665 228.124C 321.583 214.274 323.529 202.97 322.957 202.86C 322.386 202.749 319.589 213.93 316.659 227.706C 315.965 231.113 315.297 234.372 314.676 237.484C 314.433 238.923 313.886 240.596 314.774 242.306C 315.007 242.708 315.329 243.049 315.716 243.303C 316.102 243.557 316.541 243.717 316.999 243.769C 317.685 243.863 318.38 243.863 319.066 243.769C 323.845 243.253 326.788 242.81 326.764 242.552z" stroke="none" fill="#263238" fill-rule="nonzero" />
        <path d="M331.968 298.984C 347.956 296.761 363.019 290.088 375.476 279.71C 375.476 279.71 364.861 306.586 334.132 309.292L334.132 309.292L331.968 298.984z" stroke="none" fill="#FF9A6C" fill-rule="nonzero" />
        <path d="M330.46 253.646C 331.178 252.377 332.203 251.314 333.439 250.557C 334.675 249.799 336.081 249.372 337.525 249.317C 338.575 249.255 339.626 249.41 340.614 249.772C 341.603 250.133 342.509 250.694 343.277 251.42C 344.02 252.113 344.536 253.02 344.753 254.019C 344.971 255.017 344.88 256.059 344.493 257.004C 343.508 258.984 340.93 259.809 338.607 259.464C 336.281 259.016 334.065 258.105 332.09 256.783C 331.501 256.478 330.977 256.06 330.545 255.553C 330.333 255.319 330.195 255.028 330.147 254.714C 330.1 254.401 330.145 254.081 330.278 253.794" stroke="none" fill="#FF9A6C" fill-rule="nonzero" />
        <path d="M341.015 243.696C 340.237 243.769 341.015 248.911 337.209 253.216C 333.403 257.521 327.943 257.804 328.004 258.517C 328.004 258.861 329.366 259.329 331.652 259.046C 334.632 258.628 337.37 257.16 339.386 254.901C 341.319 252.736 342.344 249.895 342.243 246.98C 342.109 244.803 341.355 243.622 341.015 243.696z" stroke="none" fill="#263238" fill-rule="nonzero" />
        <path d="M335.494 190.707C 336.151 191.937 340.723 190.596 346.305 190.412C 351.886 190.227 356.556 191.064 357.103 189.797C 357.346 189.194 356.397 188.112 354.415 187.14C 351.799 185.985 348.957 185.446 346.105 185.565C 343.252 185.685 340.464 186.459 337.951 187.829C 336.066 188.961 335.203 190.129 335.494 190.707z" stroke="none" fill="#263238" fill-rule="nonzero" />
        <path d="M290.624 190.215C 291.609 191.162 294.661 189.551 298.528 188.899C 302.395 188.247 305.824 188.518 306.359 187.275C 306.614 186.673 305.933 185.689 304.353 184.889C 302.244 183.971 299.915 183.705 297.657 184.126C 295.4 184.546 293.316 185.634 291.67 187.251C 290.442 188.567 290.162 189.748 290.624 190.215z" stroke="none" fill="#263238" fill-rule="nonzero" />
        <path d="M400.149 158.998C 391.297 140.007 359.267 116.427 338.936 120.646L338.936 120.646L308.791 144.951C 310.601 150.466 313.85 155.385 318.195 159.186C 322.54 162.988 327.82 165.532 333.476 166.55C 339.495 167.559 346.548 167.103 350.658 171.679C 354.768 176.255 353.783 184.127 357.759 188.985C 363.268 195.726 375.622 193.708 380.073 201.211C 382.031 204.483 381.8 208.739 383.794 211.986C 386.469 216.303 398.739 220.596 403.25 218.407C 407.761 216.217 406.74 208.05 407.725 203.536C 409.415 195.849 407.81 192.195 406.399 188.21C 403.104 178.764 404.381 168.051 400.149 158.998z" stroke="none" fill="#263238" fill-rule="nonzero" />
        <path d="M389.789 224.36C 389.412 221.802 391.418 215.344 393.85 214.52C 400.344 212.454 412.419 211.137 415.106 228.21C 418.754 251.58 394.872 250.461 394.714 249.796C 394.556 249.132 391.102 233.142 389.789 224.36z" stroke="none" fill="#FFBF9D" fill-rule="nonzero" />
        <path d="M400.368 239.833C 400.465 239.735 400.818 240.055 401.584 240.252C 402.605 240.518 403.688 240.368 404.6 239.833C 406.886 238.542 408.321 234.298 407.773 230.067C 407.516 228.059 406.818 226.134 405.731 224.434C 405.401 223.739 404.908 223.136 404.296 222.677C 403.684 222.218 402.97 221.918 402.216 221.802C 401.735 221.751 401.252 221.874 400.852 222.149C 400.451 222.423 400.16 222.832 400.028 223.302C 399.821 224.003 400.028 224.446 399.918 224.532C 399.809 224.618 399.371 224.225 399.395 223.228C 399.435 222.632 399.676 222.068 400.076 221.629C 400.632 221.038 401.397 220.693 402.204 220.67C 404.004 220.51 405.852 221.9 406.971 223.61C 408.273 225.474 409.108 227.631 409.403 229.895C 409.999 234.618 408.309 239.403 405.123 240.965C 404.534 241.248 403.89 241.395 403.238 241.395C 402.586 241.395 401.942 241.248 401.353 240.965C 400.502 240.35 400.295 239.883 400.368 239.833z" stroke="none" fill="#FF9A6C" fill-rule="nonzero" />
        <path d="M314.725 137.091C 313.667 146.931 300.692 160.769 295.269 168.924C 284.848 184.483 283 189.465 286.672 221.15C 279.765 210.855 274.22 200.621 273.296 188.21C 272.372 175.8 275.46 162.921 282.951 153.057C 290.442 143.192 302.492 136.698 314.786 137.067" stroke="none" fill="#263238" fill-rule="nonzero" />
        <path d="M369.822 103.722C 374.686 98.2973 381.715 94.7672 389.011 92.9222C 399.407 90.29 410.826 91.0034 420.286 95.579C 429.747 100.155 437.067 108.74 438.976 118.58C 439.915 123.635 439.473 128.853 437.699 133.673C 435.925 138.492 432.886 142.732 428.908 145.935C 434.317 151.24 440.912 155.147 448.132 157.325C 446.163 160.314 442.527 162.06 438.854 162.688C 435.162 163.155 431.426 163.13 427.74 162.614C 430.256 166.417 434.021 169.196 438.368 170.461C 432.384 171.859 426.142 171.651 420.262 169.859C 414.51 168.095 409.006 165.595 403.882 162.417C 386.092 151.974 376.279 142.823 364.265 126.747C 362.696 119.81 364.922 109.158 369.822 103.722z" stroke="none" fill="#263238" fill-rule="nonzero" />
        <path d="M408.175 153.02C 395.115 133.721 378.492 123.402 363.45 120.191L363.45 120.191L408.175 153.02z" stroke="none" fill="#263238" fill-rule="nonzero" />
        <path d="M363.45 120.191C 364.14 120.47 364.852 120.689 365.578 120.843C 366.952 121.237 368.934 121.839 371.318 122.762C 377.523 125.2 383.357 128.513 388.646 132.602C 393.936 136.681 398.757 141.347 403.019 146.513C 404.624 148.518 405.925 150.203 406.764 151.31C 407.182 151.938 407.654 152.526 408.175 153.069C 407.823 152.396 407.416 151.755 406.959 151.15C 406.18 149.92 404.94 148.26 403.372 146.23C 399.217 140.909 394.43 136.126 389.12 131.987C 383.767 127.857 377.821 124.58 371.488 122.27C 369.578 121.583 367.629 121.012 365.651 120.56C 364.928 120.378 364.192 120.255 363.45 120.191z" stroke="none" fill="#455A64" fill-rule="nonzero" />
        <path d="M423.74 169.465L423.448 169.563L422.597 169.908C 421.867 170.228 420.773 170.646 419.338 171.138C 415.282 172.511 411.076 173.379 406.813 173.721C 400.492 174.197 394.137 173.783 387.928 172.491C 380.324 170.875 372.89 168.532 365.724 165.492C 358.063 162.331 350.84 159.084 344.408 155.898C 338.694 153.102 333.195 149.879 327.955 146.255C 324.433 143.801 321.107 141.07 318.008 138.088C 316.89 137.042 316.087 136.169 315.576 135.628L315.576 135.628L314.932 134.976C 314.786 134.841 314.713 134.767 314.701 134.779C 314.689 134.791 314.701 134.865 314.883 135.025L314.883 135.025L315.479 135.726C 316.002 136.341 316.78 137.239 317.911 138.321C 320.958 141.391 324.257 144.193 327.773 146.698C 332.994 150.408 338.495 153.698 344.225 156.538C 350.67 159.773 357.881 163.044 365.554 166.218C 372.764 169.266 380.249 171.601 387.904 173.192C 394.174 174.458 400.59 174.814 406.959 174.25C 411.216 173.856 415.408 172.922 419.435 171.47C 420.858 170.916 421.94 170.461 422.657 170.092L422.657 170.092L423.472 169.686C 423.654 169.527 423.752 169.477 423.74 169.465z" stroke="none" fill="#455A64" fill-rule="nonzero" />
        <path d="M354.841 285.294L352.64 280.94C 352.798 280.854 368.071 272.933 373.944 267.939C 387.782 256.18 400.502 237.398 400.636 237.189L400.636 237.189L404.648 239.956C 404.113 240.756 391.43 259.489 377.069 271.69C 370.746 277.029 355.485 284.962 354.841 285.294z" stroke="none" fill="#455A64" fill-rule="nonzero" />
        <path d="M366.211 271.703C 366.211 271.703 345.344 281.124 345.344 283.215C 345.344 285.306 348.652 289.488 351.132 289.279C 353.613 289.07 360.787 284.987 362.076 283.314C 363.365 281.641 365.651 277.336 368.156 275.245L368.156 275.245L366.211 271.703z" stroke="none" fill="#263238" fill-rule="nonzero" />
        <path d="M404.478 208.37L399.614 208.136C 399.79 193.949 397.375 179.85 392.488 166.55C 381.933 139.047 361.638 124.287 332.187 122.664C 329.508 122.545 326.824 122.73 324.186 123.217L324.186 123.217L326.314 121.175C 327.345 120.191 328.544 119.403 329.852 118.851C 331.646 118.092 333.595 117.788 335.531 117.965C 372.716 121.224 389.521 145.136 397.073 164.914C 402.217 178.801 404.729 193.543 404.478 208.37z" stroke="none" fill="#455A64" fill-rule="nonzero" />
        <path d="M402.046 253.105C 410.555 253.105 417.453 243.072 417.453 230.694C 417.453 218.317 410.555 208.284 402.046 208.284C 393.537 208.284 386.639 218.317 386.639 230.694C 386.639 243.072 393.537 253.105 402.046 253.105z" stroke="none" fill="#455A64" fill-rule="nonzero" />
        <path d="M417.453 230.694C 417.438 230.593 417.438 230.489 417.453 230.387C 417.453 230.141 417.453 229.846 417.38 229.477C 417.325 228.315 417.208 227.157 417.027 226.008C 416.399 221.771 414.768 217.749 412.273 214.286C 411.432 213.167 410.461 212.155 409.379 211.273C 408.2 210.334 406.872 209.606 405.451 209.12C 403.93 208.622 402.319 208.466 400.733 208.665C 399.054 208.92 397.447 209.528 396.015 210.449C 392.98 212.585 390.636 215.58 389.278 219.059C 387.759 222.763 386.978 226.734 386.978 230.744C 386.978 234.754 387.759 238.724 389.278 242.429C 390.635 245.908 392.979 248.904 396.015 251.039C 397.447 251.96 399.054 252.567 400.733 252.822C 402.32 253.015 403.929 252.86 405.451 252.367C 406.872 251.881 408.2 251.153 409.379 250.215C 410.458 249.329 411.429 248.318 412.273 247.201C 414.768 243.738 416.399 239.717 417.027 235.479C 417.207 234.33 417.325 233.172 417.38 232.011C 417.38 231.642 417.38 231.346 417.453 231.1C 417.437 230.999 417.437 230.895 417.453 230.793C 417.472 230.894 417.472 230.999 417.453 231.1L417.453 231.1L417.453 232.011C 417.44 233.183 417.359 234.353 417.21 235.516C 416.666 239.829 415.069 243.938 412.565 247.472C 411.713 248.63 410.725 249.68 409.622 250.596C 408.406 251.589 407.027 252.359 405.548 252.871C 403.954 253.401 402.265 253.573 400.599 253.376C 398.839 253.12 397.153 252.492 395.65 251.531C 392.504 249.366 390.069 246.299 388.658 242.724C 387.093 238.945 386.287 234.89 386.287 230.793C 386.287 226.696 387.093 222.64 388.658 218.862C 390.069 215.287 392.504 212.22 395.65 210.055C 397.153 209.094 398.839 208.465 400.599 208.21C 402.265 208.013 403.954 208.185 405.548 208.714C 407.027 209.226 408.406 209.996 409.622 210.99C 410.728 211.903 411.716 212.953 412.565 214.114C 415.073 217.646 416.67 221.755 417.21 226.07C 417.358 227.228 417.439 228.395 417.453 229.563L417.453 229.563L417.453 230.485C 417.461 230.555 417.461 230.625 417.453 230.694z" stroke="none" fill="#263238" fill-rule="nonzero" />
        <path d="M404.417 243.708C 409.837 243.708 414.23 237.32 414.23 229.44C 414.23 221.56 409.837 215.172 404.417 215.172C 398.998 215.172 394.604 221.56 394.604 229.44C 394.604 237.32 398.998 243.708 404.417 243.708z" stroke="none" fill="#455A64" fill-rule="nonzero" />
        <path d="M414.23 229.44C 414.157 229.44 414.23 228.357 413.878 226.451C 413.471 223.778 412.428 221.245 410.838 219.071C 409.757 217.58 408.257 216.452 406.533 215.836C 405.576 215.525 404.564 215.428 403.566 215.553C 402.514 215.712 401.507 216.093 400.611 216.672C 398.703 218.017 397.227 219.899 396.367 222.084C 395.406 224.423 394.914 226.932 394.92 229.464C 394.908 231.998 395.4 234.508 396.367 236.844C 397.227 239.03 398.703 240.912 400.611 242.256C 401.507 242.836 402.514 243.217 403.566 243.376C 404.564 243.501 405.576 243.404 406.533 243.093C 408.257 242.477 409.757 241.349 410.838 239.858C 412.428 237.684 413.471 235.151 413.878 232.478C 414.182 230.571 414.157 229.489 414.23 229.501C 414.247 229.759 414.247 230.018 414.23 230.276C 414.229 231.025 414.18 231.773 414.085 232.515C 413.762 235.274 412.754 237.906 411.154 240.165C 410.04 241.759 408.47 242.97 406.655 243.634C 405.631 243.986 404.543 244.104 403.469 243.978C 402.329 243.8 401.24 243.381 400.271 242.748C 398.249 241.361 396.683 239.395 395.772 237.103C 394.769 234.682 394.252 232.083 394.252 229.458C 394.252 226.833 394.769 224.235 395.772 221.814C 396.683 219.521 398.249 217.556 400.271 216.168C 401.236 215.538 402.322 215.119 403.457 214.938C 404.535 214.813 405.627 214.931 406.655 215.283C 408.47 215.947 410.04 217.157 411.154 218.751C 412.754 221.01 413.762 223.642 414.085 226.402C 414.18 227.144 414.229 227.892 414.23 228.64C 414.247 228.907 414.247 229.174 414.23 229.44z" stroke="none" fill="#263238" fill-rule="nonzero" />
        <path d="M405.098 239.698C 408.993 239.698 412.151 235.105 412.151 229.44C 412.151 223.774 408.993 219.182 405.098 219.182C 401.203 219.182 398.045 223.774 398.045 229.44C 398.045 235.105 401.203 239.698 405.098 239.698z" stroke="none" fill="#455A64" fill-rule="nonzero" />
        <path d="M412.151 229.44C 412.09 229.44 412.09 228.665 411.871 227.3C 411.558 225.38 410.8 223.564 409.658 221.998C 408.889 220.937 407.821 220.135 406.594 219.698C 405.895 219.472 405.155 219.409 404.428 219.513C 403.702 219.618 403.008 219.887 402.399 220.301C 399.76 222.06 398.362 225.75 398.349 229.428C 398.337 233.105 399.76 236.808 402.399 238.566C 403.008 238.981 403.702 239.25 404.428 239.354C 405.155 239.459 405.895 239.395 406.594 239.169C 407.821 238.732 408.889 237.931 409.658 236.869C 410.8 235.304 411.558 233.487 411.871 231.568C 412.09 230.202 412.09 229.428 412.151 229.44C 412.18 229.623 412.18 229.81 412.151 229.993C 412.157 230.532 412.129 231.07 412.066 231.605C 411.847 233.604 411.127 235.513 409.974 237.152C 409.154 238.286 408.014 239.143 406.703 239.612C 405.957 239.866 405.164 239.954 404.381 239.87C 403.551 239.754 402.755 239.461 402.046 239.009C 400.574 238.001 399.435 236.57 398.775 234.901C 398.043 233.15 397.666 231.268 397.666 229.366C 397.666 227.465 398.043 225.583 398.775 223.831C 399.435 222.162 400.574 220.731 402.046 219.723C 402.755 219.271 403.551 218.978 404.381 218.862C 405.164 218.778 405.957 218.866 406.703 219.12C 408.014 219.589 409.154 220.446 409.974 221.58C 411.127 223.219 411.847 225.128 412.066 227.127C 412.129 227.662 412.157 228.2 412.151 228.739C 412.195 228.97 412.195 229.208 412.151 229.44z" stroke="none" fill="#263238" fill-rule="nonzero" />
	</g>
</g>
</svg>
